<svg height="260" viewBox="0 0 1002 260" width="1002" xmlns="http://www.w3.org/2000/svg"><g fill="none" fill-rule="evenodd" transform="translate(53 55)"><path d="m223.498798 62.5223061h-13.498798v-11.5305422h13.498798v-10.212766c0-7.906697 2.331095-14.1386182 6.993353-18.6959505 4.662259-4.5573324 11.113427-6.8359644 19.353699-6.8359644 3.469588 0 6.749383.549068 9.839485 1.6472204 3.090102 1.0981523 5.610937 2.6355426 7.56258 4.6122168l-5.8549 9.8833219c-2.710616-2.4159352-6.071729-3.6238847-10.08344-3.6238847-3.578013 0-6.424116 1.2354029-8.538396 3.7062458-2.114281 2.4708428-3.171405 5.8476107-3.171405 10.1304049v9.3891558h23.09433v11.5305422h-23.09433v70.8304739h-16.100976zm77.539899 72.4776939c-12.468832 0-22.281113-3.816022-29.437138-11.448181s-10.733984-18.091904-10.733984-31.3795472c0-13.2876437 3.577959-23.7473881 10.733984-31.379547 7.156025-7.632159 16.968306-11.4481812 29.437138-11.4481812s22.308219 3.8160222 29.518456 11.4481812c7.210237 7.6321589 10.815302 18.0919033 10.815302 31.379547 0 13.2876432-3.605065 23.7473882-10.815302 31.3795472s-17.049624 11.448181-29.518456 11.448181zm0-12.354152c7.481299 0 13.390352-2.717887 17.727337-8.153741s6.505445-12.875725 6.505445-22.3198352c0-9.4441104-2.16846-16.8839811-6.505445-22.3198353s-10.246038-8.1537405-17.727337-8.1537405c-7.589724 0-13.498777 2.7178863-17.727337 8.1537405-4.228561 5.4358542-6.342809 12.8757249-6.342809 22.3198353 0 9.4441102 2.114248 16.8839812 6.342809 22.3198352 4.22856 5.435854 10.137613 8.153741 17.727337 8.153741zm52.981844-51.5579962c0-9.3342952-.162634-16.0329241-.487908-20.0960879h15.125159c.433699 4.3926095.650545 9.2244074.650545 14.4955388v1.6472203h.487908c2.168493-5.6005771 5.610923-9.9656673 10.327394-13.0954015 4.716471-3.1297343 10.273149-4.6945779 16.670202-4.6945779 1.734794 0 3.306928.1647204 4.716448.4941661v13.1777625c-.758973-.2196305-2.439529-.3294441-5.04172-.3294441-4.770683 0-9.188921 1.4001233-13.254844 4.2004118-4.065923 2.8002886-7.264402 6.5888574-9.595531 11.3658202-2.33113 4.7769628-3.496677 10.0205617-3.496677 15.730954v39.3685659h-16.100976zm55.421386.9883321c0-8.345958-.271057-15.3740277-.81318-21.08442h14.311978c.433699 4.0631638.650545 8.8949617.650545 14.4955388h.487908c2.060068-4.9416857 5.394075-8.8675215 10.002122-11.7776253 4.608046-2.9101038 9.839456-4.3651338 15.694386-4.3651338 5.746505 0 10.679751 1.4001232 14.799887 4.2004118 4.120135 2.8002885 6.884922 6.7261244 8.294442 11.7776252 2.276917-4.9416856 5.719347-8.840068 10.327394-11.6952642 4.608046-2.8551962 9.785244-4.2827728 15.531749-4.2827728 8.999244 0 16.019633 2.9375135 21.061378 8.8126287 5.041745 5.8751151 7.56258 13.9738674 7.56258 24.2964996v50.8991081h-16.100976v-49.4166098c0-6.8085447-1.436605-12.079597-4.309858-15.813315-2.873252-3.7337181-6.96622-5.6005491-12.279027-5.6005491-5.421231 0-9.839468 2.004098-13.254844 6.0123542-3.415375 4.0082561-5.123038 9.1969482-5.123038 15.5662319v49.2518878h-15.938339v-48.7577217c0-14.7152417-5.312727-22.0727522-15.93834-22.0727522-3.469588 0-6.640961.9883223-9.514214 2.9649966-2.873252 1.9766742-5.177241 4.6671072-6.912035 8.0713795-1.734794 3.4042724-2.602178 7.0830276-2.602178 11.0363761v48.7577217h-15.93834zm157.556871 62.9238161c-6.397053 0-12.143472-1.317763-17.239429-3.953329-5.095957-2.635565-8.673916-6.1496-10.733984-10.54221l10.246076-7.083047c1.843218 2.855196 4.336947 5.106375 7.481261 6.753603 3.144315 1.647229 6.559639 2.470831 10.246076 2.470831 4.22856 0 7.725202-1.20795 10.49003-3.623885s4.147221-5.490716 4.147221-9.224434c0-2.965011-1.08423-5.408364-3.252722-7.33013-2.168493-1.921767-6.180144-3.9807717-12.035073-6.1770764-9.432943-3.6239028-16.073851-7.3301115-19.922925-11.1187372-3.849074-3.7886256-5.773583-8.4831566-5.773583-14.0837336 0-6.5889143 2.575047-11.8599666 7.725216-15.8133151 5.15017-3.9533485 12.007924-5.9299931 20.57347-5.9299931 5.529655 0 10.571325 1.1530427 15.125159 3.4591626 4.553834 2.30612 8.131793 5.5456209 10.733984 9.7185999l-9.595531 7.2477694c-1.843219-2.6355657-4.147208-4.6396637-6.912035-6.0123542-2.764828-1.3726904-5.827778-2.0590253-9.188941-2.0590253-3.686437 0-6.695176.8236019-9.026305 2.4708304-2.331129 1.6472286-3.496677 3.7885936-3.496677 6.4241593 0 2.7453809 1.192653 5.0240129 3.577995 6.8359643s7.047531 4.0905834 13.986706 6.8359643c8.67397 3.4042723 14.772764 6.9457606 18.296564 10.624571s5.285674 8.4282477 5.285674 14.2484557c0 7.796882-2.818998 14.056256-8.457078 18.778312-5.638081 4.722055-13.065056 7.083047-22.281149 7.083047zm73.31136 0c-7.589724 0-13.525883-2.333539-17.808656-7.000686-4.282772-4.667148-6.424126-11.118696-6.424126-19.354839v-45.1338367h-14.637251v-12.5188744h14.637251v-20.9917639h16.100976v20.9917639h23.256965v12.5188744h-23.256965v43.1571727c0 5.380946 1.057124 9.334235 3.171404 11.859986 2.11428 2.52575 5.339864 3.788607 9.676849 3.788607s8.186002-.658882 11.547165-1.976665l.975817 11.695264c-4.011711 1.976675-9.75813 2.964997-17.239429 2.964997zm53.307116 0c-5.312806 0-10.056312-1.098136-14.23066-3.294441-4.174348-2.196304-7.427038-5.243631-9.758168-9.142072-2.331129-3.898441-3.496676-8.318438-3.496676-13.260124 0-8.345958 3.144267-14.7425995 9.432895-19.1901166s15.233525-6.6712423 26.83496-6.6712423h15.287795v-4.1180508c0-5.4907618-1.46371-9.718585-4.391175-12.6835964s-7.210173-4.4474949-12.848254-4.4474949c-4.879108 0-9.432874.960869-13.661434 2.8826356s-7.698096 4.6945598-10.408712 8.3184626l-7.643897-9.7185999c3.903286-4.6122399 8.646792-8.1537282 14.23066-10.624571s11.62845-3.7062457 18.133928-3.7062457c10.408764 0 18.486277 2.5531659 24.232782 7.6595745 5.746505 5.1064085 8.619715 12.326652 8.619715 21.6609471v38.2155118c0 4.941685.650538 10.432365 1.951633 16.472203h-14.149343c-1.084246-2.635566-1.843207-6.314321-2.276905-11.036376h-.325273c-6.180203 8.455773-14.691408 12.683596-25.533871 12.683596zm3.090087-12.683596c5.854929 0 10.815281-1.619751 14.881205-4.8593 4.065923-3.23955 6.098854-7.165386 6.098854-11.777626v-10.8716537h-15.93834c-6.397052 0-11.303193 1.2354029-14.718569 3.7062457-3.415375 2.470843-5.123037 6.067238-5.123037 10.789293 0 4.063164 1.328181 7.247758 3.984584 9.553878 2.656404 2.30612 6.261468 3.459163 10.815303 3.459163zm88.761791 12.683596c-12.251983 0-21.793206-3.788569-28.623958-11.36582-6.830751-7.577252-10.246075-18.064449-10.246075-31.4619082 0-13.5072741 3.415324-24.0219253 10.246075-31.5442691 6.830752-7.5223437 16.371975-11.2834591 28.623958-11.2834591 7.0476 0 13.254817 1.3726699 18.621836 4.1180508s9.56841 6.6986701 12.604299 11.8599862l-9.595531 8.7302677c-2.276917-3.733718-5.25855-6.6437782-8.944987-8.7302677s-7.698088-3.1297186-12.035073-3.1297186c-7.372874 0-13.119293 2.6355262-17.239429 7.9066576-4.120135 5.2711313-6.180172 12.6286418-6.180172 22.0727522 0 9.3342952 2.060037 16.6643522 6.180172 21.9903912 4.120136 5.326039 9.866555 7.989019 17.239429 7.989019 4.336985 0 8.348636-1.04323 12.035073-3.129719 3.686437-2.08649 6.66807-4.99655 8.944987-8.730268l9.595531 8.730268c-3.035889 5.161316-7.23728 9.114605-12.604299 11.859986s-11.574236 4.118051-18.621836 4.118051zm93.315602-1.64722-25.859143-40.3568981-11.221892 11.2010981v29.1558h-16.263613v-118.35278h16.263613v69.5950583l33.177768-33.6032944h19.678971l-30.738227 30.9677419 33.177769 51.3932742z" fill="#15232b"/><g fill-rule="nonzero"><g fill="#21b573"><path d="m142.5 15h10.5c2.485281 0 4.5 2.0147186 4.5 4.5v111c0 2.485281-2.014719 4.5-4.5 4.5h-10.5z"/><path d="m165 30h10.5c2.485281 0 4.5 2.0147186 4.5 4.5v81c0 2.485281-2.014719 4.5-4.5 4.5h-10.5z"/><rect height="150" rx="4.5" width="135"/></g><g fill="#fff" transform="translate(30 24)"><path d="m1.5 0h69.2238284c.8284271 0 1.5.67157288 1.5 1.5 0 .45567558-.2071346.88664493-.5629574 1.17130321l-69.22382843 55.37906269c-.6468929.5175144-1.59083146.4126323-2.10834578-.2342606-.21277566-.2659696-.32869679-.5964353-.32869679-.9370426v-55.3790627c0-.82842712.67157288-1.5 1.5-1.5z"/><path d="m0 90.0670668v-23.2326392c0-.4605499.21156839-.8955725.57384692-1.1799324l20.17328958-15.8344276c.2641817-.2073616.5903096-.3200676.9261531-.3200676h36.6613003c.8284271 0 1.5.6715729 1.5 1.5 0 .4939876-.243217.9563055-.6503059 1.2361311l-56.83458992 39.0670667c-.68269633.4692731-1.61655205.2962594-2.08582513-.3864369-.17186439-.2500276-.26386895-.5462948-.26386895-.8496941z"/><path d="m.64240714 98.7768236 20.99999996-14.6339264c.6796771-.4736355 1.6146217-.3066057 2.0882571.3730713.1753354.25161.2693358.5509171.2693358.8575929v15.2439926c0 .828427-.6715729 1.5-1.5 1.5h-21.0534668c-.79889822 0-1.4465332-.647635-1.4465332-1.446533v-.663533c0-.4905918.23990481-.9501792.64240714-1.2306644z"/></g></g></g></svg>